<?xml version="1.0" encoding="UTF-8"?>
<svg version="1.1" xmlns="http://www.w3.org/2000/svg" width="600" height="600">
<path d="M0 0 C1.65706861 0.00113094 3.31413921 0.00048982 4.97120667 -0.00177002 C9.42915219 -0.00290849 13.88665921 0.02045884 18.34450364 0.04852581 C23.0182761 0.07368544 27.69206077 0.07589287 32.3658905 0.08062744 C41.1982958 0.09301471 50.03050091 0.12577827 58.86281842 0.1660254 C68.92577795 0.21087605 78.9887475 0.23276345 89.05178225 0.25280714 C109.73539782 0.29451508 130.41883371 0.36478372 151.10229492 0.45410156 C151.10229492 1.11410156 151.10229492 1.77410156 151.10229492 2.45410156 C152.02139648 2.5353125 152.94049805 2.61652344 153.88745117 2.70019531 C159.35786813 3.48952775 164.39838643 5.55787342 169.53979492 7.51660156 C171.14213989 8.12387085 171.14213989 8.12387085 172.77685547 8.7434082 C180.7910245 11.83516578 188.46698803 15.29874867 196.03637695 19.34912109 C198.40403693 20.61549181 200.78191528 21.86146261 203.16088867 23.10644531 C207.16615003 25.20465312 211.16466911 27.31513754 215.15795898 29.43603516 C217.12741802 30.46725617 219.11083107 31.46614445 221.10229492 32.45410156 C221.10229492 33.11410156 221.10229492 33.77410156 221.10229492 34.45410156 C221.76358398 34.67324219 222.42487305 34.89238281 223.10620117 35.11816406 C227.10412291 36.90080974 230.48323561 39.29477723 234.03979492 41.82910156 C234.78688721 42.35930908 235.53397949 42.8895166 236.30371094 43.43579102 C243.61053151 48.69685704 250.39425713 54.45913972 257.10229492 60.45410156 C258.0175293 61.25847656 258.93276367 62.06285156 259.87573242 62.89160156 C265.4992099 67.87486776 270.83474776 73.09859907 276.10229492 78.45410156 C276.93245117 79.27007812 277.76260742 80.08605469 278.61791992 80.92675781 C282.25441445 84.62614769 285.45149824 88.62934744 288.68481445 92.68164062 C289.68670537 93.93443568 290.69336187 95.18342662 291.70336914 96.4296875 C300.06961559 106.76966953 307.46137694 117.32201244 314.08764648 128.86035156 C315.13280015 130.62909809 315.13280015 130.62909809 317.10229492 132.45410156 C318.16592964 134.38952176 319.18102358 136.35189037 320.16479492 138.32910156 C320.69202148 139.37839844 321.21924805 140.42769531 321.76245117 141.50878906 C323.10229492 144.45410156 323.10229492 144.45410156 323.66088867 146.77441406 C323.80655273 147.32871094 323.9522168 147.88300781 324.10229492 148.45410156 C324.76229492 148.78410156 325.42229492 149.11410156 326.10229492 149.45410156 C327.10791016 151.46020508 327.10791016 151.46020508 328.16088867 154.08300781 C328.54696289 155.03626953 328.93303711 155.98953125 329.33081055 156.97167969 C329.72977539 157.97650391 330.12874023 158.98132813 330.53979492 160.01660156 C330.93489258 160.99435547 331.32999023 161.97210938 331.73706055 162.97949219 C334.57061054 170.01857727 337.34317465 177.0820817 339.78979492 184.26660156 C340.04116211 184.99492187 340.2925293 185.72324219 340.55151367 186.47363281 C341.10229492 188.45410156 341.10229492 188.45410156 341.10229492 191.45410156 C341.76229492 191.78410156 342.42229492 192.11410156 343.10229492 192.45410156 C342.77229492 193.11410156 342.44229492 193.77410156 342.10229492 194.45410156 C342.76229492 194.45410156 343.42229492 194.45410156 344.10229492 194.45410156 C344.2234668 195.17855469 344.34463867 195.90300781 344.46948242 196.64941406 C344.72084961 198.09960938 344.72084961 198.09960938 344.97729492 199.57910156 C345.1397168 200.53042969 345.30213867 201.48175781 345.46948242 202.46191406 C346.05048923 205.49058924 346.05048923 205.49058924 347.11401367 208.47753906 C348.62321578 213.02304106 349.14819535 217.64050462 349.80493164 222.37353516 C350.12433943 224.60834069 350.47408614 226.83730844 350.82495117 229.06738281 C355.36937676 258.79992598 356.3472378 287.82143765 351.05541992 317.51660156 C349.88962596 324.21710905 349.4974917 330.92123436 349.10229492 337.70410156 C348.08255463 353.46535061 346.51100952 368.26216727 342.10229492 383.45410156 C341.76848583 384.78731587 341.43518383 386.1206572 341.10229492 387.45410156 C338.20227234 398.12761802 335.00073791 408.49141943 330.28735352 418.515625 C328.95138042 421.37163525 328.10229492 423.25452979 328.10229492 426.45410156 C327.44229492 426.45410156 326.78229492 426.45410156 326.10229492 426.45410156 C325.85479492 427.27910156 325.60729492 428.10410156 325.35229492 428.95410156 C319.81239321 444.46582635 309.70506828 458.12403136 299.28198242 470.68457031 C297.82494482 472.51567473 297.82494482 472.51567473 298.10229492 475.45410156 C297.11229492 475.78410156 296.12229492 476.11410156 295.10229492 476.45410156 C291.5906468 480.24508533 288.66102968 484.33663205 286.35229492 488.95410156 C285.93979492 489.77910156 285.52729492 490.60410156 285.10229492 491.45410156 C284.11229492 491.78410156 283.12229492 492.11410156 282.10229492 492.45410156 C280.45412822 494.04211682 280.45412822 494.04211682 278.85229492 496.01660156 C277.9299707 497.09941406 277.9299707 497.09941406 276.98901367 498.20410156 C276.36639648 498.94660156 275.7437793 499.68910156 275.10229492 500.45410156 C270.46039365 505.98666109 265.61690059 510.79447352 260.10229492 515.45410156 C258.87259704 516.55767659 257.64343947 517.66185394 256.41479492 518.76660156 C212.02779715 557.45410156 212.02779715 557.45410156 196.10229492 557.45410156 C195.77229492 558.11410156 195.44229492 558.77410156 195.10229492 559.45410156 C192.98924617 560.48270666 190.83502199 561.42737105 188.66479492 562.32910156 C187.49045898 562.82152344 186.31612305 563.31394531 185.10620117 563.82128906 C183.77195451 564.36651222 182.43729293 564.9107207 181.10229492 565.45410156 C180.36164795 565.76057617 179.62100098 566.06705078 178.85791016 566.3828125 C172.00885294 569.18094945 165.05598471 571.61023266 158.03979492 573.95410156 C156.85546875 574.34992432 155.67114258 574.74574707 154.45092773 575.15356445 C146.55087504 577.75124718 138.68650814 579.96857467 130.55541992 581.70019531 C127.06668731 582.41432593 127.06668731 582.41432593 123.57885742 583.52050781 C118.97810131 584.75599176 114.53705199 584.89443154 109.79760742 585.11035156 C108.9081543 585.22378906 108.01870117 585.33722656 107.10229492 585.45410156 C106.77229492 586.11410156 106.44229492 586.77410156 106.10229492 587.45410156 C106.10229492 586.79410156 106.10229492 586.13410156 106.10229492 585.45410156 C105.38686523 585.586875 104.67143555 585.71964844 103.93432617 585.85644531 C102.93788086 586.03304687 101.94143555 586.20964844 100.91479492 586.39160156 C99.95186523 586.565625 98.98893555 586.73964844 97.99682617 586.91894531 C71.15992144 590.60666442 44.49397215 588.29815692 17.80297852 584.91162109 C13.24167266 584.3477019 8.67804497 583.88321929 4.10229492 583.45410156 C4.10229492 582.79410156 4.10229492 582.13410156 4.10229492 581.45410156 C3.11229492 581.78410156 2.12229492 582.11410156 1.10229492 582.45410156 C-1.48053774 581.92475777 -3.93354198 581.31054063 -6.46020508 580.57910156 C-7.23017822 580.3607666 -8.00015137 580.14243164 -8.79345703 579.91748047 C-22.66206343 575.87771277 -36.71502144 571.39182167 -49.89770508 565.45410156 C-50.54860107 565.16341797 -51.19949707 564.87273438 -51.87011719 564.57324219 C-69.77798084 556.50741391 -86.74856136 547.03953105 -102.74536133 535.63378906 C-105.12923484 533.98546017 -107.32733042 532.72765824 -109.89770508 531.45410156 C-111.56437174 529.7874349 -113.23103841 528.12076823 -114.89770508 526.45410156 C-115.88770508 526.12410156 -116.87770508 525.79410156 -117.89770508 525.45410156 C-119.08324297 524.31919163 -120.26222581 523.17624358 -121.39868164 521.9921875 C-123.09749383 520.24910659 -124.85937079 518.59017088 -126.63989258 516.93066406 C-127.31407227 516.30160156 -127.98825195 515.67253906 -128.68286133 515.02441406 C-130.06800857 513.73506205 -131.45342213 512.4459961 -132.83911133 511.15722656 C-145.23859393 499.58437613 -155.80543306 487.04185141 -166.08911133 473.58691406 C-167.01530273 472.37648438 -167.01530273 472.37648438 -167.96020508 471.14160156 C-168.75104492 470.09552734 -168.75104492 470.09552734 -169.55786133 469.02832031 C-170.83109225 467.32438052 -170.83109225 467.32438052 -172.89770508 466.45410156 C-173.91461771 464.46264765 -174.91413156 462.46223083 -175.89770508 460.45410156 C-176.55770508 459.79410156 -177.21770508 459.13410156 -177.89770508 458.45410156 C-183.4519019 450.61818064 -187.72610614 442.18660704 -191.87719727 433.56005859 C-192.8788456 431.49302067 -193.90540493 429.44003777 -194.93676758 427.38769531 C-209.04109986 398.93462355 -216.04570687 366.84140031 -217.68676758 335.23144531 C-217.88977284 332.55854266 -218.36800787 330.07814006 -218.89770508 327.45410156 C-219.18574143 324.33770821 -219.40086854 321.22078785 -219.61645508 318.09863281 C-219.73889438 315.47996011 -219.73889438 315.47996011 -220.89770508 313.45410156 C-224.63271643 290.44425062 -223.51890169 266.75598093 -221.07739258 243.67724609 C-220.8418398 241.21245824 -220.8418398 241.21245824 -220.96020508 237.76269531 C-220.88890111 233.98804157 -219.99271066 231.0664911 -218.89770508 227.45410156 C-218.53218869 225.74950031 -218.18619411 224.04065156 -217.85473633 222.32910156 C-211.71363559 190.67589716 -201.14207007 159.40957778 -184.24536133 131.77441406 C-182.77442252 129.42261489 -182.77442252 129.42261489 -181.89770508 126.45410156 C-181.23770508 126.45410156 -180.57770508 126.45410156 -179.89770508 126.45410156 C-179.63989258 125.74253906 -179.38208008 125.03097656 -179.11645508 124.29785156 C-174.75684926 114.125438 -166.74952591 105.08857531 -159.89770508 96.45410156 C-159.10879883 95.45765625 -158.31989258 94.46121094 -157.50708008 93.43457031 C-153.66074029 88.65281115 -149.73069966 84.18223075 -145.30786133 79.93066406 C-143.73537615 78.40151633 -143.73537615 78.40151633 -142.46020508 75.95410156 C-140.48086143 72.78715172 -138.02593569 70.78576945 -135.18286133 68.39160156 C-132.81977533 66.38802779 -130.54968314 64.30477325 -128.27270508 62.20410156 C-123.60311226 57.9768149 -118.71608693 54.08873686 -113.71948242 50.25976562 C-111.26057702 48.3655081 -108.92641297 46.4831215 -106.74145508 44.27441406 C-104.84104636 42.39816308 -103.14417446 41.34483787 -100.77270508 40.14160156 C-97.29275998 38.28753245 -94.10074002 36.25410018 -90.89770508 33.95410156 C-85.79515834 30.30601908 -80.5040517 27.05912396 -74.76489258 24.50488281 C-72.57209092 23.45650574 -72.57209092 23.45650574 -70.89770508 20.45410156 C-69.90770508 20.45410156 -68.91770508 20.45410156 -67.89770508 20.45410156 C-66.06031393 19.7108064 -64.25070105 18.89792103 -62.46020508 18.04785156 C-61.4005957 17.5515625 -60.34098633 17.05527344 -59.24926758 16.54394531 C-58.14325195 16.01929688 -57.03723633 15.49464844 -55.89770508 14.95410156 C-53.71268103 13.9176158 -51.52528202 12.88611753 -49.33520508 11.86035156 C-48.36454102 11.39951172 -47.39387695 10.93867188 -46.39379883 10.46386719 C-43.89770508 9.45410156 -43.89770508 9.45410156 -40.89770508 9.45410156 C-40.56770508 8.79410156 -40.23770508 8.13410156 -39.89770508 7.45410156 C-37.63420755 6.57385253 -35.32725442 5.99194936 -32.98404217 5.35467148 C-30.99956831 4.77561696 -29.03026547 4.14006756 -27.08649158 3.43637466 C-17.96016129 0.21704069 -9.52571459 -0.09213738 0 0 Z " fill="#EFD8E0" transform="translate(228.897705078125,-0.4541015625)"/>
<path d="M0 0 C7.20660706 5.93128053 13.9046991 12.02464533 19.78125 19.2890625 C20.55210937 20.23394531 21.32296875 21.17882812 22.1171875 22.15234375 C47.27408354 53.5592786 61.24965317 93.53523412 61.04199219 133.70166016 C61.03129292 136.15422449 61.04194193 138.60605174 61.0546875 141.05859375 C61.09028215 177.89489159 50.50689398 217.84375847 29.76831055 248.55273438 C28.69158529 250.44679078 28.28011328 252.17875731 27.78125 254.2890625 C26.30684127 256.41694878 24.69447833 258.38131671 23.05859375 260.38671875 C21.50252451 262.32226725 21.50252451 262.32226725 21.78125 265.2890625 C20.79125 265.6190625 19.80125 265.9490625 18.78125 266.2890625 C15.26960188 270.08004627 12.33998476 274.17159299 10.03125 278.7890625 C9.61875 279.6140625 9.20625 280.4390625 8.78125 281.2890625 C7.79125 281.6190625 6.80125 281.9490625 5.78125 282.2890625 C4.1330833 283.87707776 4.1330833 283.87707776 2.53125 285.8515625 C1.91636719 286.5734375 1.30148437 287.2953125 0.66796875 288.0390625 C0.04535156 288.7815625 -0.57726562 289.5240625 -1.21875 290.2890625 C-5.86065127 295.82162203 -10.70414433 300.62943446 -16.21875 305.2890625 C-17.44844788 306.39263752 -18.67760545 307.49681488 -19.90625 308.6015625 C-64.29324777 347.2890625 -64.29324777 347.2890625 -80.21875 347.2890625 C-80.54875 347.9490625 -80.87875 348.6090625 -81.21875 349.2890625 C-83.33179875 350.3176676 -85.48602293 351.26233198 -87.65625 352.1640625 C-88.83058594 352.65648437 -90.00492187 353.14890625 -91.21484375 353.65625 C-92.54909041 354.20147316 -93.883752 354.74568164 -95.21875 355.2890625 C-95.95939697 355.59553711 -96.70004395 355.90201172 -97.46313477 356.21777344 C-104.31219198 359.01591039 -111.26506021 361.4451936 -118.28125 363.7890625 C-119.46557617 364.18488525 -120.64990234 364.58070801 -121.87011719 364.98852539 C-129.77016989 367.58620811 -137.63453678 369.80353561 -145.765625 371.53515625 C-149.25435761 372.24928687 -149.25435761 372.24928687 -152.7421875 373.35546875 C-157.34294361 374.59095269 -161.78399293 374.72939247 -166.5234375 374.9453125 C-167.41289062 375.05875 -168.30234375 375.1721875 -169.21875 375.2890625 C-169.54875 375.9490625 -169.87875 376.6090625 -170.21875 377.2890625 C-170.21875 376.6290625 -170.21875 375.9690625 -170.21875 375.2890625 C-171.20875 374.9590625 -172.19875 374.6290625 -173.21875 374.2890625 C-172.16300781 373.72960937 -171.10726563 373.17015625 -170.01953125 372.59375 C-145.80128812 359.56275484 -122.7864002 343.56615031 -102.21875 325.2890625 C-101.49131592 324.64775391 -100.76388184 324.00644531 -100.0144043 323.34570312 C-93.520337 317.57092151 -87.3025467 311.55607606 -81.15625 305.4140625 C-80.22748047 304.49753906 -79.29871094 303.58101562 -78.34179688 302.63671875 C-72.19380376 296.50166878 -66.60035897 290.10252595 -61.21875 283.2890625 C-60.33787791 282.20521007 -59.45649787 281.12176988 -58.57421875 280.0390625 C-38.74849999 254.89076338 -24.30012851 226.05681735 -19.21875 194.2890625 C-19.03441406 193.13921875 -18.85007812 191.989375 -18.66015625 190.8046875 C-17.96542442 184.98220634 -17.99538741 179.12151248 -17.97851562 173.26489258 C-17.96888744 171.25524979 -17.93772402 169.2457475 -17.90625 167.23632812 C-17.8519225 153.38960775 -20.05070951 140.80187816 -26.21875 128.2890625 C-26.63769531 127.43828125 -27.05664062 126.5875 -27.48828125 125.7109375 C-36.66720824 108.88731338 -53.31269413 99.68610484 -69.78125 91.2890625 C-87.639988 82.17137131 -103.36022115 71.32862184 -113.21875 53.2890625 C-113.92644531 52.01482422 -113.92644531 52.01482422 -114.6484375 50.71484375 C-121.20846227 37.7306527 -123.44930748 21.59006904 -119.59375 7.5390625 C-117.65939058 1.88426266 -115.33113512 -2.38695314 -111.21875 -6.7109375 C-110.24615234 -7.74347656 -110.24615234 -7.74347656 -109.25390625 -8.796875 C-80.65902529 -36.61612628 -27.5553661 -21.55540735 0 0 Z " fill="#855C4E" transform="translate(505.21875,209.7109375)"/>
<path d="M0 0 C6.35997696 6.05877587 11.67165113 15.84083293 12.34863281 24.66210938 C12.5423522 35.01483359 12.63251858 44.66181618 9.1875 54.5625 C8.93226563 55.38363281 8.67703125 56.20476562 8.4140625 57.05078125 C1.2965627 77.52175546 -16.00707981 90.22536282 -34.4375 99.875 C-58.40567564 112.69065179 -79.16285356 125.01988432 -87.75 152.5703125 C-96.36047143 184.94237334 -88.9855115 220.93142402 -74.8125 250.5625 C-74.24789062 251.74537598 -74.24789062 251.74537598 -73.671875 252.95214844 C-65.9669037 268.83081012 -56.13570099 283.04702514 -44.8125 296.5625 C-44.00296875 297.55636719 -43.1934375 298.55023438 -42.359375 299.57421875 C-31.03767906 313.28873855 -18.43104002 326.66682944 -4.35546875 337.578125 C-1.93143608 339.46968966 0.38704355 341.45494302 2.70288086 343.4765625 C10.12319856 349.92333632 18.00194392 355.59469912 26.11035156 361.14111328 C28.03578854 362.45868428 29.95186021 363.78889571 31.8671875 365.12109375 C42.252645 372.26437267 53.18675189 378.42395222 64.1875 384.5625 C62.1875 386.5625 62.1875 386.5625 60.14038086 386.63769531 C59.31932861 386.55616211 58.49827637 386.47462891 57.65234375 386.390625 C56.31526367 386.25914062 56.31526367 386.25914062 54.95117188 386.125 C54.01853516 386.021875 53.08589844 385.91875 52.125 385.8125 C50.72024414 385.68101562 50.72024414 385.68101562 49.28710938 385.546875 C44.11839868 385.00792182 44.11839868 385.00792182 42.1875 384.5625 C41.8575 383.9025 41.5275 383.2425 41.1875 382.5625 C40.1975 382.8925 39.2075 383.2225 38.1875 383.5625 C35.60466733 383.0331562 33.15166309 382.41893907 30.625 381.6875 C29.47004028 381.35999756 29.47004028 381.35999756 28.29174805 381.02587891 C14.42314165 376.98611121 0.37018364 372.50022011 -12.8125 366.5625 C-13.463396 366.27181641 -14.11429199 365.98113281 -14.78491211 365.68164062 C-32.69277576 357.61581235 -49.66335628 348.14792949 -65.66015625 336.7421875 C-68.04402976 335.0938586 -70.24212534 333.83605667 -72.8125 332.5625 C-74.47916667 330.89583333 -76.14583333 329.22916667 -77.8125 327.5625 C-78.8025 327.2325 -79.7925 326.9025 -80.8125 326.5625 C-81.99803789 325.42759006 -83.17702073 324.28464201 -84.31347656 323.10058594 C-86.01228875 321.35750503 -87.77416571 319.69856932 -89.5546875 318.0390625 C-90.22886719 317.41 -90.90304688 316.7809375 -91.59765625 316.1328125 C-92.98280349 314.84346049 -94.36821705 313.55439454 -95.75390625 312.265625 C-105.66141572 303.01861617 -114.50789026 293.35145962 -122.81298828 282.64648438 C-125.26080872 279.49867767 -127.75179726 276.45103722 -130.4375 273.5 C-132.8125 270.5625 -132.8125 270.5625 -133.23828125 268.2421875 C-133.96627984 264.84486075 -135.47094339 262.65266164 -137.375 259.75 C-150.18657198 239.64868427 -158.88795144 217.08359511 -164.5625 194 C-164.76109619 193.21101318 -164.95969238 192.42202637 -165.16430664 191.60913086 C-168.45632806 177.60217893 -169.22745331 163.3359025 -169.1875 149 C-169.18662384 148.22113434 -169.18574768 147.44226868 -169.18484497 146.63980103 C-169.07951919 118.04476251 -162.42681164 91.22907738 -149.8125 65.5625 C-149.50231934 64.91909668 -149.19213867 64.27569336 -148.87255859 63.61279297 C-141.03042547 47.49308304 -130.50616956 33.18748552 -117.8125 20.5625 C-116.91917969 19.66917969 -116.02585938 18.77585938 -115.10546875 17.85546875 C-87.78820916 -8.18191923 -33.16835665 -26.13264463 0 0 Z " fill="#855C4E" transform="translate(191.8125,198.4375)"/>
<path d="M0 0 C1.65706861 0.00113094 3.31413921 0.00048982 4.97120667 -0.00177002 C9.42915219 -0.00290849 13.88665921 0.02045884 18.34450364 0.04852581 C23.0182761 0.07368544 27.69206077 0.07589287 32.3658905 0.08062744 C41.1982958 0.09301471 50.03050091 0.12577827 58.86281842 0.1660254 C68.92577795 0.21087605 78.9887475 0.23276345 89.05178225 0.25280714 C109.73539782 0.29451508 130.41883371 0.36478372 151.10229492 0.45410156 C151.10229492 1.11410156 151.10229492 1.77410156 151.10229492 2.45410156 C152.02139648 2.5353125 152.94049805 2.61652344 153.88745117 2.70019531 C159.35786813 3.48952775 164.39838643 5.55787342 169.53979492 7.51660156 C171.14213989 8.12387085 171.14213989 8.12387085 172.77685547 8.7434082 C180.7910245 11.83516578 188.46698803 15.29874867 196.03637695 19.34912109 C198.40403693 20.61549181 200.78191528 21.86146261 203.16088867 23.10644531 C207.16615003 25.20465312 211.16466911 27.31513754 215.15795898 29.43603516 C217.12741802 30.46725617 219.11083107 31.46614445 221.10229492 32.45410156 C221.10229492 33.11410156 221.10229492 33.77410156 221.10229492 34.45410156 C221.76358398 34.67324219 222.42487305 34.89238281 223.10620117 35.11816406 C227.10412291 36.90080974 230.48323561 39.29477723 234.03979492 41.82910156 C234.78688721 42.35930908 235.53397949 42.8895166 236.30371094 43.43579102 C243.61053151 48.69685704 250.39425713 54.45913972 257.10229492 60.45410156 C258.0175293 61.25847656 258.93276367 62.06285156 259.87573242 62.89160156 C265.4992099 67.87486776 270.83474776 73.09859907 276.10229492 78.45410156 C276.93245117 79.27007812 277.76260742 80.08605469 278.61791992 80.92675781 C282.25441445 84.62614769 285.45149824 88.62934744 288.68481445 92.68164062 C289.68670537 93.93443568 290.69336187 95.18342662 291.70336914 96.4296875 C300.06961559 106.76966953 307.46137694 117.32201244 314.08764648 128.86035156 C315.13280015 130.62909809 315.13280015 130.62909809 317.10229492 132.45410156 C318.16592964 134.38952176 319.18102358 136.35189037 320.16479492 138.32910156 C320.69202148 139.37839844 321.21924805 140.42769531 321.76245117 141.50878906 C323.10229492 144.45410156 323.10229492 144.45410156 323.66088867 146.77441406 C323.80655273 147.32871094 323.9522168 147.88300781 324.10229492 148.45410156 C324.76229492 148.78410156 325.42229492 149.11410156 326.10229492 149.45410156 C327.10791016 151.46020508 327.10791016 151.46020508 328.16088867 154.08300781 C328.54696289 155.03626953 328.93303711 155.98953125 329.33081055 156.97167969 C329.72977539 157.97650391 330.12874023 158.98132813 330.53979492 160.01660156 C330.93489258 160.99435547 331.32999023 161.97210938 331.73706055 162.97949219 C334.57061054 170.01857727 337.34317465 177.0820817 339.78979492 184.26660156 C340.04116211 184.99492187 340.2925293 185.72324219 340.55151367 186.47363281 C341.10229492 188.45410156 341.10229492 188.45410156 341.10229492 191.45410156 C341.76229492 191.78410156 342.42229492 192.11410156 343.10229492 192.45410156 C342.77229492 193.11410156 342.44229492 193.77410156 342.10229492 194.45410156 C342.76229492 194.45410156 343.42229492 194.45410156 344.10229492 194.45410156 C344.2234668 195.17855469 344.34463867 195.90300781 344.46948242 196.64941406 C344.72084961 198.09960938 344.72084961 198.09960938 344.97729492 199.57910156 C345.1397168 200.53042969 345.30213867 201.48175781 345.46948242 202.46191406 C346.05048923 205.49058924 346.05048923 205.49058924 347.11401367 208.47753906 C348.62321578 213.02304106 349.14819535 217.64050462 349.80493164 222.37353516 C350.12433943 224.60834069 350.47408614 226.83730844 350.82495117 229.06738281 C355.36947374 258.80056045 356.26151425 287.74576077 351.10229492 317.45410156 C350.44229492 317.45410156 349.78229492 317.45410156 349.10229492 317.45410156 C349.10229492 319.10410156 349.10229492 320.75410156 349.10229492 322.45410156 C348.77229492 322.45410156 348.44229492 322.45410156 348.10229492 322.45410156 C348.0376001 321.69194336 347.97290527 320.92978516 347.90625 320.14453125 C342.18971163 254.45095549 322.24818454 192.08448615 280.10229492 140.45410156 C279.45091553 139.65045166 279.45091553 139.65045166 278.78637695 138.83056641 C267.308909 124.7551996 254.54556187 111.49895276 240.10229492 100.45410156 C239.10198242 99.66003906 238.10166992 98.86597656 237.07104492 98.04785156 C224.20259636 87.87702134 210.56858748 79.16969322 196.10229492 71.45410156 C195.46211426 71.11137207 194.82193359 70.76864258 194.16235352 70.41552734 C168.55108079 56.83290518 141.50711631 48.78308235 113.10229492 43.45410156 C111.68013672 43.18073975 111.68013672 43.18073975 110.22924805 42.90185547 C56.10738655 32.96897183 -5.84283763 42.11270426 -54.89770508 66.45410156 C-55.74107422 66.86499023 -56.58444336 67.27587891 -57.45336914 67.69921875 C-80.84139826 79.16119184 -102.0665873 93.82540514 -120.96020508 111.72753906 C-122.9373634 113.59441501 -124.96411259 115.35839947 -127.06958008 117.07910156 C-129.3539467 118.99746469 -131.2447333 120.80555106 -133.14770508 123.07910156 C-135.06772196 125.34138232 -136.99637908 127.55817743 -139.03833008 129.71191406 C-162.91012932 154.92749008 -181.18890227 186.28347896 -193.89770508 218.45410156 C-194.24961914 219.34355469 -194.6015332 220.23300781 -194.96411133 221.14941406 C-211.9222651 264.57730601 -218.82529696 311.11197821 -212.89770508 357.45410156 C-212.81182129 358.20675293 -212.7259375 358.9594043 -212.63745117 359.73486328 C-209.97299765 382.82177598 -203.09929554 407.25374293 -192.10473633 427.80566406 C-190.89770508 430.45410156 -190.89770508 430.45410156 -191.89770508 433.45410156 C-207.36296023 402.7690715 -215.90409652 369.56908555 -217.68676758 335.23144531 C-217.88977284 332.55854266 -218.36800787 330.07814006 -218.89770508 327.45410156 C-219.18574143 324.33770821 -219.40086854 321.22078785 -219.61645508 318.09863281 C-219.73889438 315.47996011 -219.73889438 315.47996011 -220.89770508 313.45410156 C-224.63271643 290.44425062 -223.51890169 266.75598093 -221.07739258 243.67724609 C-220.8418398 241.21245824 -220.8418398 241.21245824 -220.96020508 237.76269531 C-220.88890111 233.98804157 -219.99271066 231.0664911 -218.89770508 227.45410156 C-218.53218869 225.74950031 -218.18619411 224.04065156 -217.85473633 222.32910156 C-211.71363559 190.67589716 -201.14207007 159.40957778 -184.24536133 131.77441406 C-182.77442252 129.42261489 -182.77442252 129.42261489 -181.89770508 126.45410156 C-181.23770508 126.45410156 -180.57770508 126.45410156 -179.89770508 126.45410156 C-179.63989258 125.74253906 -179.38208008 125.03097656 -179.11645508 124.29785156 C-174.75684926 114.125438 -166.74952591 105.08857531 -159.89770508 96.45410156 C-159.10879883 95.45765625 -158.31989258 94.46121094 -157.50708008 93.43457031 C-153.66074029 88.65281115 -149.73069966 84.18223075 -145.30786133 79.93066406 C-143.73537615 78.40151633 -143.73537615 78.40151633 -142.46020508 75.95410156 C-140.48086143 72.78715172 -138.02593569 70.78576945 -135.18286133 68.39160156 C-132.81977533 66.38802779 -130.54968314 64.30477325 -128.27270508 62.20410156 C-123.60311226 57.9768149 -118.71608693 54.08873686 -113.71948242 50.25976562 C-111.26057702 48.3655081 -108.92641297 46.4831215 -106.74145508 44.27441406 C-104.84104636 42.39816308 -103.14417446 41.34483787 -100.77270508 40.14160156 C-97.29275998 38.28753245 -94.10074002 36.25410018 -90.89770508 33.95410156 C-85.79515834 30.30601908 -80.5040517 27.05912396 -74.76489258 24.50488281 C-72.57209092 23.45650574 -72.57209092 23.45650574 -70.89770508 20.45410156 C-69.90770508 20.45410156 -68.91770508 20.45410156 -67.89770508 20.45410156 C-66.06031393 19.7108064 -64.25070105 18.89792103 -62.46020508 18.04785156 C-61.4005957 17.5515625 -60.34098633 17.05527344 -59.24926758 16.54394531 C-58.14325195 16.01929688 -57.03723633 15.49464844 -55.89770508 14.95410156 C-53.71268103 13.9176158 -51.52528202 12.88611753 -49.33520508 11.86035156 C-48.36454102 11.39951172 -47.39387695 10.93867188 -46.39379883 10.46386719 C-43.89770508 9.45410156 -43.89770508 9.45410156 -40.89770508 9.45410156 C-40.56770508 8.79410156 -40.23770508 8.13410156 -39.89770508 7.45410156 C-37.63420755 6.57385253 -35.32725442 5.99194936 -32.98404217 5.35467148 C-30.99956831 4.77561696 -29.03026547 4.14006756 -27.08649158 3.43637466 C-17.96016129 0.21704069 -9.52571459 -0.09213738 0 0 Z " fill="#C7B4D4" transform="translate(228.897705078125,-0.4541015625)"/>
<path d="M0 0 C2.14151935 0.01607053 4.28114519 0.00007067 6.42260742 -0.01904297 C19.50016686 -0.03937034 33.11711429 1.50325556 43.65893555 9.95361328 C46.70064999 13.01659845 48.1092822 15.54994551 48.3972168 19.89111328 C48.00264668 24.83583241 46.30738391 28.01321317 42.7097168 31.39111328 C35.77948452 36.63387265 27.80629111 39.45266986 19.7097168 42.39111328 C15.27791286 44.04338862 11.67498924 45.5472416 8.7097168 49.39111328 C5.72209423 56.79006304 5.38116663 65.48095622 7.4675293 73.19189453 C9.47629745 77.89747346 12.03614528 82.66544439 16.4284668 85.50048828 C27.96623974 90.00496128 42.66601117 84.63325678 53.3659668 79.97314453 C62.1661968 75.80948431 70.99861664 71.48992995 78.8972168 65.76611328 C81.85639039 63.68032685 82.40299429 63.38563609 86.2097168 63.45361328 C88.7097168 64.39111328 88.7097168 64.39111328 89.7097168 65.39111328 C90.38252447 69.28317791 90.44234963 72.89229191 88.6862793 76.48486328 C74.47423759 96.27179428 50.29475328 103.75521292 27.45629883 107.95336914 C-5.7668688 113.24840377 -42.3516836 108.73240994 -70.2668457 88.94580078 C-83.19620803 79.01165753 -83.19620803 79.01165753 -85.2902832 71.39111328 C-85.2277832 68.01611328 -85.2277832 68.01611328 -84.2902832 65.39111328 C-81.2902832 63.39111328 -81.2902832 63.39111328 -78.55981445 63.48095703 C-74.44430529 64.62661251 -71.48963471 66.5795579 -67.9777832 68.95361328 C-53.57794499 78.31544971 -37.70742361 86.41286988 -20.2277832 86.64111328 C-19.04055664 86.66689453 -17.85333008 86.69267578 -16.63012695 86.71923828 C-11.89471971 86.25400529 -9.38458258 84.54978321 -6.1652832 81.14111328 C-0.22338774 72.42633327 -0.19729147 63.59816565 -1.2902832 53.39111328 C-2.07612895 49.56557254 -3.1004653 47.67373527 -6.2902832 45.39111328 C-10.1772728 43.61595268 -14.08535462 42.17136993 -18.1340332 40.81689453 C-27.27043414 37.75955303 -37.72919118 33.51329733 -42.2902832 24.39111328 C-42.9093844 20.54328182 -43.07756999 16.96257506 -41.30200195 13.41845703 C-31.74245233 1.16607652 -14.33811209 -0.12759529 0 0 Z " fill="#855C4F" transform="translate(291.290283203125,286.60888671875)"/>
<path d="M0 0 C1.92469716 1.40806792 3.81359922 2.80070402 5.6015625 4.37890625 C5.6015625 4.70890625 5.6015625 5.03890625 5.6015625 5.37890625 C4.90297119 5.3631958 4.20437988 5.34748535 3.48461914 5.33129883 C-26.9197302 4.73954135 -52.52481545 9.16843256 -76.3984375 29.37890625 C-77.0584375 29.04890625 -77.7184375 28.71890625 -78.3984375 28.37890625 C-70.05476676 12.80556986 -60.53503181 -2.13444599 -42.94140625 -7.9296875 C-27.7723703 -12.0539876 -12.92979721 -8.73919519 0 0 Z " fill="#EFD8DD" transform="translate(165.3984375,236.62109375)"/>
<path d="M0 0 C0.97018066 0.00757324 1.94036133 0.01514648 2.93994141 0.02294922 C13.92178769 0.27593609 21.87926301 3.14581523 30.125 10.4375 C30.76953125 10.98921875 31.4140625 11.5409375 32.078125 12.109375 C39.3768722 18.83341769 45.77413662 28.07271865 49.125 37.4375 C45.80913606 35.9226383 42.84356322 33.99229728 39.796875 32.01025391 C23.94766906 21.76800703 5.80683745 14.24853887 -13.3671875 14.33984375 C-14.56601562 14.34306641 -15.76484375 14.34628906 -17 14.34960938 C-18.2375 14.35798828 -19.475 14.36636719 -20.75 14.375 C-22.01070313 14.37951172 -23.27140625 14.38402344 -24.5703125 14.38867188 C-27.67192386 14.4004204 -30.77343725 14.41684833 -33.875 14.4375 C-31.19629024 10.98716139 -28.96448094 8.53854674 -25.1875 6.3125 C-24.39988281 5.83554688 -23.61226563 5.35859375 -22.80078125 4.8671875 C-15.19414342 1.15019224 -8.45061548 -0.09222047 0 0 Z " fill="#F0D9DE" transform="translate(451.875,227.5625)"/>
<path d="M0 0 C0.33 0 0.66 0 1 0 C-1.02096164 45.39690677 -1.02096164 45.39690677 -7 66 C-7.33380909 67.3332143 -7.66711109 68.66655564 -8 70 C-10.90002258 80.67351646 -14.10155701 91.03731787 -18.81494141 101.06152344 C-20.15091451 103.91753369 -21 105.80042823 -21 109 C-21.66 109 -22.32 109 -23 109 C-23.24621094 109.82371094 -23.49242187 110.64742188 -23.74609375 111.49609375 C-25.20070344 115.56084419 -27.03803132 119.25705246 -29.0625 123.0625 C-29.45445557 123.80040771 -29.84641113 124.53831543 -30.25024414 125.29858398 C-33.97394452 132.17293668 -38.02322941 138.95001461 -43 145 C-43.66 145 -44.32 145 -45 145 C-43.69750582 141.59219748 -42.21626781 138.41538658 -40.4609375 135.21875 C-34.67201746 124.50320994 -29.4480056 113.96428485 -25.58740234 102.38867188 C-25.30074707 101.56173828 -25.0140918 100.73480469 -24.71875 99.8828125 C-24.48091797 99.15465332 -24.24308594 98.42649414 -23.99804688 97.67626953 C-23 96 -23 96 -20.97216797 95.390625 C-19.99594482 95.19726562 -19.99594482 95.19726562 -19 95 C-8.96167703 78.18734865 -6.72874383 53.99732536 -4 35 C-3.8976001 34.30318115 -3.7952002 33.6063623 -3.68969727 32.88842773 C-2.84342681 26.72384507 -2.67347724 20.54561365 -2.48242188 14.33398438 C-2.27562259 9.22643217 -1.62608274 4.8519149 0 0 Z " fill="#E4CDD0" transform="translate(578,317)"/>
<path d="M0 0 C-2.34914492 2.34914492 -3.95679446 2.73140357 -7.125 3.625 C-8.49011719 4.01558594 -8.49011719 4.01558594 -9.8828125 4.4140625 C-10.58148438 4.60742188 -11.28015625 4.80078125 -12 5 C-12.33 4.34 -12.66 3.68 -13 3 C-12.01 3 -11.02 3 -10 3 C-9.67 2.34 -9.34 1.68 -9 1 C-5.99083491 -0.07470182 -3.17106439 -0.08808512 0 0 Z M-13 4 C-13 4.66 -13 5.32 -13 6 C-14.40185547 6.58394531 -14.40185547 6.58394531 -15.83203125 7.1796875 C-50.80167243 21.97766195 -81.62081642 43.40642443 -108.4375 70.25 C-109.27571289 71.08901855 -110.11392578 71.92803711 -110.97753906 72.79248047 C-116.72530374 78.59743125 -122.06592295 84.48188086 -127 91 C-128.35367347 92.72955279 -129.70781458 94.45873971 -131.0625 96.1875 C-132.04312995 97.45720454 -133.02290302 98.72757467 -134 100 C-134.33 99.34 -134.66 98.68 -135 98 C-129.60464864 90.81370738 -124.12440478 83.88081376 -118.01953125 77.2734375 C-116.17212136 75.19376137 -114.54737958 73.07761359 -112.9375 70.8125 C-110.3774836 67.30562821 -107.50403245 64.61068184 -104.1796875 61.83203125 C-101.84545253 59.87010257 -99.61562984 57.81799115 -97.375 55.75 C-92.70540718 51.52271334 -87.81838186 47.6346353 -82.82177734 43.80566406 C-80.36287195 41.91140654 -78.02870789 40.02901993 -75.84375 37.8203125 C-73.94334128 35.94406152 -72.24646938 34.89073631 -69.875 33.6875 C-66.3950549 31.83343089 -63.20303494 29.79999861 -60 27.5 C-54.89745327 23.85191752 -49.60634662 20.6050224 -43.8671875 18.05078125 C-41.67438584 17.00240418 -41.67438584 17.00240418 -40 14 C-39.01 14 -38.02 14 -37 14 C-35.29759592 13.32882045 -33.6216041 12.58955004 -31.96484375 11.8125 C-30.99095703 11.36132812 -30.01707031 10.91015625 -29.01367188 10.4453125 C-27.99853516 9.96835938 -26.98339844 9.49140625 -25.9375 9 C-23.92735316 8.05913431 -21.91570598 7.12146525 -19.90234375 6.1875 C-19.01023193 5.76855469 -18.11812012 5.34960938 -17.19897461 4.91796875 C-15 4 -15 4 -13 4 Z " fill="#BFAFC9" transform="translate(198,6)"/>
<path d="M0 0 C0.495 1.485 0.495 1.485 1 3 C0.02727325 4.35335895 -0.9739266 5.68662604 -2 7 C-2 7.99 -2 8.98 -2 10 C-2.99 10.33 -3.98 10.66 -5 11 C-8.51164812 14.79098377 -11.44126524 18.88253049 -13.75 23.5 C-14.1625 24.325 -14.575 25.15 -15 26 C-16.485 26.495 -16.485 26.495 -18 27 C-19.6481667 28.58801526 -19.6481667 28.58801526 -21.25 30.5625 C-21.86488281 31.284375 -22.47976563 32.00625 -23.11328125 32.75 C-23.73589844 33.4925 -24.35851562 34.235 -25 35 C-29.64190127 40.53255953 -34.48539433 45.34037196 -40 50 C-41.22969788 51.10357502 -42.45885545 52.20775238 -43.6875 53.3125 C-58.22563505 65.98387062 -74.39993896 76.27683421 -91 86 C-92.38638672 86.84498047 -92.38638672 86.84498047 -93.80078125 87.70703125 C-94.58839844 88.17496094 -95.37601562 88.64289063 -96.1875 89.125 C-97.16783203 89.71667969 -97.16783203 89.71667969 -98.16796875 90.3203125 C-100.47233895 91.17523876 -101.7184279 90.79930907 -104 90 C-102.99324219 89.48953125 -101.98648437 88.9790625 -100.94921875 88.453125 C-67.98450021 71.51027592 -36.79411389 48.51281291 -14 19 C-13.12395979 17.88000345 -12.24764509 16.76022156 -11.37109375 15.640625 C-7.39737153 10.53595336 -3.53814172 5.41651444 0 0 Z " fill="#714D41" transform="translate(529,465)"/>
<path d="M0 0 C2.83513979 2.74105329 5.31662055 5.58737458 7.75 8.6875 C17.42032695 20.57593825 27.83210505 31.66011734 40 41 C41.73120829 42.45590911 43.460313 43.91432257 45.1875 45.375 C62.69437273 59.62707386 82.59082194 71.42231405 103 81 C100.68423486 81.8049641 99.41604088 82.13817531 97.05566406 81.35424805 C96.38245117 80.99371338 95.70923828 80.63317871 95.015625 80.26171875 C94.25314453 79.85872559 93.49066406 79.45573242 92.70507812 79.04052734 C91.48981445 78.37077881 91.48981445 78.37077881 90.25 77.6875 C89.40888672 77.2332666 88.56777344 76.7790332 87.70117188 76.31103516 C76.34860996 70.10647937 65.43534363 63.33440396 55.13671875 55.49609375 C52.98069163 53.83518173 52.98069163 53.83518173 50 53 C48.33333333 51.33333333 46.66666667 49.66666667 45 48 C44.01 47.67 43.02 47.34 42 47 C40.81446211 45.86509006 39.63547927 44.72214201 38.49902344 43.53808594 C36.80021125 41.79500503 35.03833429 40.13606932 33.2578125 38.4765625 C32.58363281 37.8475 31.90945312 37.2184375 31.21484375 36.5703125 C29.82969651 35.28096049 28.44428295 33.99189454 27.05859375 32.703125 C17.37957579 23.6693749 7.24962878 14.17192034 0 3 C0 2.01 0 1.02 0 0 Z " fill="#714E42" transform="translate(69,478)"/>
<path d="M0 0 C0.33 0 0.66 0 1 0 C1.03963867 0.86874756 1.07927734 1.73749512 1.12011719 2.63256836 C2.86222196 39.17105035 7.23379998 76.52854114 24.79296875 109.3515625 C26 112 26 112 25 115 C9.53474485 84.31496994 0.99360856 51.11498399 -0.7890625 16.77734375 C-0.93073867 14.01479093 -0.93073867 14.01479093 -1.58203125 11.4296875 C-2.05352911 8.6888308 -1.74293275 6.86920554 -1.0625 4.1875 C-0.86785156 3.39730469 -0.67320313 2.60710937 -0.47265625 1.79296875 C-0.31667969 1.20128906 -0.16070312 0.60960937 0 0 Z " fill="#DEC9CD" transform="translate(12,318)"/>
<path d="M0 0 C0.33 0 0.66 0 1 0 C-1.02096164 45.39690677 -1.02096164 45.39690677 -7 66 C-7.33424131 67.33310601 -7.66752191 68.66645315 -8 70 C-8.78557973 72.90363037 -9.61018652 75.7955208 -10.4375 78.6875 C-10.65470703 79.47189453 -10.87191406 80.25628906 -11.09570312 81.06445312 C-11.67040573 83.06124265 -12.32914974 85.03342648 -13 87 C-13.99 87.495 -13.99 87.495 -15 88 C-14.36294242 83.37941373 -13.2191455 78.99704043 -11.98120117 74.51196289 C-8.39553089 61.46965251 -5.92224009 48.38250225 -4 35 C-3.8976001 34.30318115 -3.7952002 33.6063623 -3.68969727 32.88842773 C-2.84342681 26.72384507 -2.67347724 20.54561365 -2.48242188 14.33398438 C-2.27562259 9.22643217 -1.62608274 4.8519149 0 0 Z " fill="#E2CCD2" transform="translate(578,317)"/>
<path d="M0 0 C0.33 0 0.66 0 1 0 C0.98952637 1.02544922 0.97905273 2.05089844 0.96826172 3.10742188 C0.7926697 21.9671147 0.6919596 40.67702376 2.72998047 59.45458984 C3.20839409 63.96448172 3.59904688 68.4826668 4 73 C3.34 73 2.68 73 2 73 C1.855625 71.88625 1.71125 70.7725 1.5625 69.625 C1.21627965 66.17857953 1.21627965 66.17857953 0 64 C-1.84889164 52.60974785 -2.186785 41.21051895 -2.1875 29.6875 C-2.1882251 28.44967773 -2.1889502 27.21185547 -2.18969727 25.93652344 C-2.04845102 2.04845102 -2.04845102 2.04845102 0 0 Z " fill="#BDACC2" transform="translate(8,249)"/>
<path d="M0 0 C3.5625 0.375 3.5625 0.375 5.5625 2 C6.91448496 5.21096428 6.56701167 7.07446166 5.5625 10.375 C2.5625 12.375 2.5625 12.375 -1 12.1875 C-4.4375 11.375 -4.4375 11.375 -6.4375 8.375 C-6.00994932 3.13750421 -5.6417115 0.61545944 0 0 Z " fill="#F0DCDE" transform="translate(274.4375,306.625)"/>
<path d="M0 0 C1.875 1.125 1.875 1.125 3 3 C3.39365568 6.14924548 3.52854531 8.11909116 1.875 10.875 C-0.88090884 12.52854531 -2.85075452 12.39365568 -6 12 C-7.875 10.875 -7.875 10.875 -9 9 C-9.39365568 5.85075452 -9.52854531 3.88090884 -7.875 1.125 C-5.11909116 -0.52854531 -3.14924548 -0.39365568 0 0 Z " fill="#F3E0E2" transform="translate(316,307)"/>
<path d="M0 0 C8.6326993 3.46068562 13.99535552 16.02374405 18.67431641 23.69189453 C21.04393515 27.56896475 21.04393515 27.56896475 24 31 C25.06363471 32.9354202 26.07872866 34.89778881 27.0625 36.875 C27.85333984 38.44894531 27.85333984 38.44894531 28.66015625 40.0546875 C30 43 30 43 30.55859375 45.3203125 C30.70425781 45.87460938 30.84992187 46.42890625 31 47 C31.66 47.33 32.32 47.66 33 48 C33 49.65 33 51.3 33 53 C29.85877392 51.42938696 29.06545776 48.24983888 27.625 45.1875 C20.66606787 30.87413044 12.32713322 17.34292969 2.86328125 4.5546875 C1 2 1 2 0 0 Z " fill="#C0AFCA" transform="translate(522,101)"/>
<path d="M0 0 C4.07562427 1.69817678 7.20081956 4.51679688 10.5 7.375 C11.11222412 7.90230713 11.72444824 8.42961426 12.35522461 8.97290039 C18.535485 14.35998081 24.28334325 20.12999031 30 26 C31.26263672 27.2375 31.26263672 27.2375 32.55078125 28.5 C35.07621907 31.07779937 37.35498914 33.75813951 39.625 36.5625 C40.38039063 37.49191406 41.13578125 38.42132813 41.9140625 39.37890625 C43.64951674 41.55959875 45.34407293 43.75869743 47 46 C46.505 46.99 46.505 46.99 46 48 C43.82535122 45.54862627 41.66169267 43.08780163 39.5 40.625 C38.87996094 39.92632812 38.25992188 39.22765625 37.62109375 38.5078125 C36.74130859 37.50234375 36.74130859 37.50234375 35.84375 36.4765625 C35.29912109 35.85861816 34.75449219 35.24067383 34.19335938 34.60400391 C33 33 33 33 33 31 C32.34 31 31.68 31 31 31 C29.51953125 29.49609375 29.51953125 29.49609375 27.8125 27.4375 C22.04986841 20.67474227 15.71872698 14.79582492 9 9 C7.32979276 7.54572298 5.66310915 6.08738908 4 4.625 C3.236875 3.95726562 2.47375 3.28953125 1.6875 2.6015625 C1.130625 2.07304688 0.57375 1.54453125 0 1 C0 0.67 0 0.34 0 0 Z " fill="#BFAFC9" transform="translate(475,52)"/>
<path d="M0 0 C0.66 0.66 1.32 1.32 2 2 C0.93855307 4.43796313 -0.12417709 6.87535517 -1.1875 9.3125 C-1.50847656 10.05016602 -1.82945313 10.78783203 -2.16015625 11.54785156 C-3.87734554 15.48193222 -5.64737117 19.3774481 -7.5 23.25 C-11.32695974 31.55667851 -14.06672003 40.34765054 -17 49 C-17.66 48.01 -18.32 47.02 -19 46 C-18.4519043 43.48242188 -18.4519043 43.48242188 -17.32421875 40.46875 C-16.91220215 39.35604736 -16.50018555 38.24334473 -16.07568359 37.09692383 C-15.61758301 35.90993896 -15.15948242 34.7229541 -14.6875 33.5 C-14.23197754 32.29432373 -13.77645508 31.08864746 -13.30712891 29.84643555 C-9.38635507 19.63656699 -4.92231832 9.76140903 0 0 Z " fill="#BFAFC9" transform="translate(38,143)"/>
<path d="M0 0 C2.38376293 2.38376293 2.29127876 3.03570044 2.44921875 6.296875 C2.49328857 7.16731445 2.5373584 8.03775391 2.58276367 8.93457031 C2.61732666 9.86366211 2.65188965 10.79275391 2.6875 11.75 C2.74611206 13.16297363 2.74611206 13.16297363 2.8059082 14.60449219 C3.3378048 29.78748714 3.3378048 29.78748714 2 37 C1.01 37.495 1.01 37.495 0 38 C0 25.46 0 12.92 0 0 Z " fill="#BDACC6" transform="translate(581,255)"/>
<path d="M0 0 C2.20825504 2.05370478 3.70307026 3.99622828 5.12109375 6.65234375 C5.49943359 7.34650391 5.87777344 8.04066406 6.26757812 8.75585938 C7.04502706 10.20562643 7.82107854 11.65614378 8.59570312 13.10742188 C10.72429416 17.00682719 12.78789179 19.89256334 16 23 C17.14506966 24.8804355 18.22842327 26.79971715 19.25 28.75 C19.77078125 29.73484375 20.2915625 30.7196875 20.828125 31.734375 C21.21484375 32.48203125 21.6015625 33.2296875 22 34 C20.1015625 33.68359375 20.1015625 33.68359375 18 33 C16.375 30.0625 16.375 30.0625 15 27 C14.34 26.34 13.68 25.68 13 25 C0 6.30412371 0 6.30412371 0 0 Z " fill="#D2B8B6" transform="translate(38,433)"/>
<path d="M0 0 C0.33 0 0.66 0 1 0 C0.34859261 7.55928187 -0.70379431 15.01521309 -1.9375 22.5 C-2.10701172 23.5828125 -2.27652344 24.665625 -2.45117188 25.78125 C-2.62068359 26.8125 -2.79019531 27.84375 -2.96484375 28.90625 C-3.1155835 29.83759766 -3.26632324 30.76894531 -3.42163086 31.72851562 C-4 34 -4 34 -6 36 C-6.05469084 33.9794772 -6.09310129 31.95851112 -6.125 29.9375 C-6.14820313 28.81214844 -6.17140625 27.68679687 -6.1953125 26.52734375 C-5.98496643 22.72849379 -5.11214473 19.63141163 -4 16 C-3.27128098 12.7087571 -2.67323185 9.3919076 -2.05664062 6.078125 C-1.10247477 1.10247477 -1.10247477 1.10247477 0 0 Z " fill="#BEAEC7" transform="translate(14,211)"/>
<path d="M0 0 C6.20415214 0.41975287 10.85276857 3.4176702 16.125 6.4375 C17.89817238 7.43666856 19.67160041 8.43538359 21.4453125 9.43359375 C22.22406738 9.87759521 23.00282227 10.32159668 23.80517578 10.77905273 C25.84444697 11.91346822 27.9043456 12.97424488 30 14 C29.67 14.99 29.34 15.98 29 17 C27.89543457 16.37955811 27.89543457 16.37955811 26.76855469 15.74658203 C24.02564365 14.20645176 21.28226637 12.66715621 18.53857422 11.12841797 C17.35316636 10.46338571 16.1679427 9.79802501 14.98291016 9.13232422 C13.27555504 8.17328091 11.56747295 7.21553216 9.859375 6.2578125 C8.83295898 5.6817627 7.80654297 5.10571289 6.74902344 4.51220703 C4.52073034 3.28644793 2.28550206 2.11406272 0 1 C0 0.67 0 0.34 0 0 Z " fill="#C0B0CA" transform="translate(420,18)"/>
<path d="M0 0 C5.00775317 0.97034837 8.53565076 3.90672919 12.625 6.8125 C13.40101563 7.34681641 14.17703125 7.88113281 14.9765625 8.43164062 C16.0903125 9.21764648 16.0903125 9.21764648 17.2265625 10.01953125 C17.90283691 10.49495361 18.57911133 10.97037598 19.27587891 11.46020508 C21.17167913 13.15332488 22.02011193 14.67425287 23 17 C17.39311418 13.35107431 11.8943576 9.55595048 6.4375 5.6875 C5.80569824 5.24293457 5.17389648 4.79836914 4.52294922 4.34033203 C2.99657362 3.25270028 1.49555182 2.12964156 0 1 C0 0.67 0 0.34 0 0 Z " fill="#BFAFCA" transform="translate(451,35)"/>
<path d="M0 0 C0.99 0 1.98 0 3 0 C4.29673602 2.53919006 5.58747837 5.08114238 6.875 7.625 C7.23980469 8.33785156 7.60460938 9.05070312 7.98046875 9.78515625 C10.00000927 13.78751837 11.7081111 17.68917073 13 22 C9.0207978 18.51363477 6.7617354 14.44848564 4.25 9.875 C3.83878906 9.14667969 3.42757812 8.41835938 3.00390625 7.66796875 C0 2.2689213 0 2.2689213 0 0 Z " fill="#EBD4D4" transform="translate(38,431)"/>
<path d="M0 0 C3.3 1.65 6.6 3.3 10 5 C9.34 5.66 8.68 6.32 8 7 C5.3984375 6.9765625 5.3984375 6.9765625 2.375 6.625 C1.37210938 6.51414062 0.36921875 6.40328125 -0.6640625 6.2890625 C-1.43492187 6.19367187 -2.20578125 6.09828125 -3 6 C-2.01 5.34 -1.02 4.68 0 4 C0 2.68 0 1.36 0 0 Z " fill="#815F58" transform="translate(246,578)"/>
<path d="M0 0 C0.33 0.66 0.66 1.32 1 2 C-0.6167649 4.5056873 -2.24275978 7.00442611 -3.875 9.5 C-4.33519531 10.21542969 -4.79539062 10.93085938 -5.26953125 11.66796875 C-5.71425781 12.34472656 -6.15898438 13.02148438 -6.6171875 13.71875 C-7.02565918 14.34716797 -7.43413086 14.97558594 -7.85498047 15.62304688 C-8.42176514 16.30463867 -8.42176514 16.30463867 -9 17 C-9.66 17 -10.32 17 -11 17 C-8.89077011 11.32130415 -6.35078017 7.21043243 -2 3 C-1.34 2.01 -0.68 1.02 0 0 Z " fill="#C1A39F" transform="translate(544,445)"/>
<path d="M0 0 C0 0.66 0 1.32 0 2 C-0.69867188 2.13277344 -1.39734375 2.26554688 -2.1171875 2.40234375 C-3.02726562 2.57894531 -3.93734375 2.75554688 -4.875 2.9375 C-5.77992188 3.11152344 -6.68484375 3.28554688 -7.6171875 3.46484375 C-9.99956317 3.89963701 -9.99956317 3.89963701 -12 5 C-14.69565202 4.83219837 -17.32405554 4.38844355 -20 4 C-20 3.67 -20 3.34 -20 3 C-17.41747107 2.49550598 -14.83411297 1.99625699 -12.25 1.5 C-11.52039063 1.35691406 -10.79078125 1.21382812 -10.0390625 1.06640625 C-6.60656468 0.41111121 -3.50830509 0 0 0 Z " fill="#725045" transform="translate(361,579)"/>
<path d="M0 0 C0.99 0.33 1.98 0.66 3 1 C2.09238938 2.75471386 1.17349289 4.50359264 0.25 6.25 C-0.26046875 7.22453125 -0.7709375 8.1990625 -1.296875 9.203125 C-2.94819881 11.91493199 -4.66491299 13.86796403 -7 16 C-5.35433477 10.31497465 -2.70967216 5.23318364 0 0 Z " fill="#E7CFCF" transform="translate(546,436)"/>
<path d="M0 0 C6.61085476 0.48969295 11.94977014 2.33442742 18 5 C18 5.66 18 6.32 18 7 C11.89262558 5.23536928 5.92566493 3.30442525 0 1 C0 0.67 0 0.34 0 0 Z " fill="#C0B0CB" transform="translate(385,4)"/>
<path d="M0 0 C0.66 0 1.32 0 2 0 C0.91103333 5.75762166 -0.29336293 11.39247819 -2 17 C-2.66 17 -3.32 17 -4 17 C-2.91103333 11.24237834 -1.70663707 5.60752181 0 0 Z " fill="#BFAFC8" transform="translate(18,193)"/>
<path d="M0 0 C4.01352269 3.46109962 5.00287285 7.9358503 6 13 C5.6875 16.625 5.6875 16.625 5 19 C3.19523895 15.74358332 2.26051195 12.54663205 1.375 8.9375 C1.11460937 7.89464844 0.85421875 6.85179687 0.5859375 5.77734375 C0 3 0 3 0 0 Z " fill="#BEADC9" transform="translate(571,198)"/>
<path d="M0 0 C0.66 0.66 1.32 1.32 2 2 C1.01 3.485 1.01 3.485 0 5 C-0.66 4.67 -1.32 4.34 -2 4 C-1.34 2.68 -0.68 1.36 0 0 Z M-3 5 C-2.34 5.66 -1.68 6.32 -1 7 C-2.65 9.97 -4.3 12.94 -6 16 C-6.66 16 -7.32 16 -8 16 C-6.55049545 12.2089881 -4.84827434 8.6125362 -3 5 Z " fill="#C0B0CA" transform="translate(47,127)"/>
<path d="M0 0 C-3.13498292 1.85776765 -5.37471432 2.20140476 -9 2 C-9.33 2.66 -9.66 3.32 -10 4 C-10 3.34 -10 2.68 -10 2 C-10.99 1.67 -11.98 1.34 -13 1 C-8.21445459 -2.88825564 -5.49029017 -1.76805955 0 0 Z " fill="#90726E" transform="translate(345,583)"/>
<path d="M0 0 C9.59453303 2.89066059 9.59453303 2.89066059 13 6 C7.90551202 5.56826373 4.15487723 5.24599784 0 2 C0 1.34 0 0.68 0 0 Z " fill="#714E43" transform="translate(173,560)"/>
<path d="M0 0 C3.69790046 1.23263349 3.9354846 2.20052451 5.6875 5.5625 C6.12449219 6.38878906 6.56148437 7.21507812 7.01171875 8.06640625 C7.33785156 8.70449219 7.66398437 9.34257812 8 10 C6.1015625 9.68359375 6.1015625 9.68359375 4 9 C2.375 6.0625 2.375 6.0625 1 3 C0.34 2.34 -0.32 1.68 -1 1 C-0.67 0.67 -0.34 0.34 0 0 Z " fill="#BC9D97" transform="translate(52,457)"/>
<path d="M0 0 C3.79588866 0.54226981 5.47211993 2.20127563 8 5 C4.85375007 5.26218749 3.38162983 5.24754367 0.6875 3.5 C0.130625 3.005 -0.42625 2.51 -1 2 C-0.67 1.34 -0.34 0.68 0 0 Z " fill="#E9D1D0" transform="translate(163,237)"/>
<path d="M0 0 C0.66 0 1.32 0 2 0 C4.41685712 4.22949995 5.34833144 7.12335991 5 12 C2.65085508 9.65085508 2.26859643 8.04320554 1.375 4.875 C1.11460937 3.96492187 0.85421875 3.05484375 0.5859375 2.1171875 C0.39257812 1.41851562 0.19921875 0.71984375 0 0 Z " fill="#C0AFC9" transform="translate(560,166)"/>
<path d="M0 0 C0.66 0.66 1.32 1.32 2 2 C0.02 4.97 -1.96 7.94 -4 11 C-5 8 -5 8 -4.00390625 5.95703125 C-3.52824219 5.24933594 -3.05257812 4.54164062 -2.5625 3.8125 C-2.08941406 3.09707031 -1.61632813 2.38164063 -1.12890625 1.64453125 C-0.75636719 1.10183594 -0.38382813 0.55914062 0 0 Z " fill="#C0B0CA" transform="translate(54,116)"/>
<path d="M0 0 C0.99 1.32 1.98 2.64 3 4 C1.35 5.32 -0.3 6.64 -2 8 C-2.66 7.67 -3.32 7.34 -4 7 C-2.68 4.69 -1.36 2.38 0 0 Z " fill="#E9D2CF" transform="translate(91,258)"/>
<path d="M0 0 C0.66 0.66 1.32 1.32 2 2 C0.02 4.64 -1.96 7.28 -4 10 C-4.33 9.01 -4.66 8.02 -5 7 C-4.00390625 5.17578125 -4.00390625 5.17578125 -2.5625 3.3125 C-2.08941406 2.68988281 -1.61632813 2.06726563 -1.12890625 1.42578125 C-0.75636719 0.95527344 -0.38382813 0.48476562 0 0 Z " fill="#C0AFCA" transform="translate(61,106)"/>
<path d="M0 0 C0.33 0.66 0.66 1.32 1 2 C0.34 1.67 -0.32 1.34 -1 1 C-0.67 0.67 -0.34 0.34 0 0 Z " fill="#CEBAD3" transform="translate(90,67)"/>
<path d="M0 0 C2 1 2 1 2 1 Z " fill="#D8C0C5" transform="translate(331,589)"/>
<path d="M0 0 C2 1 2 1 2 1 Z " fill="#B2918D" transform="translate(418,564)"/>
<path d="M0 0 C2 1 2 1 2 1 Z " fill="#A3827C" transform="translate(437,556)"/>
<path d="M0 0 C2 1 2 1 2 1 Z " fill="#9B7971" transform="translate(128,541)"/>
<path d="" fill="#C5AAA7" transform="translate(0,0)"/>
<path d="M0 0 C2 1 2 1 2 1 Z " fill="#9B766D" transform="translate(29,423)"/>
<path d="M0 0 C2 1 2 1 2 1 Z " fill="#A27F77" transform="translate(28,420)"/>
<path d="" fill="#C2B0C6" transform="translate(0,0)"/>
<path d="M0 0 C2 1 2 1 2 1 Z " fill="#D2BDD4" transform="translate(27,159)"/>
<path d="" fill="#C8B5D0" transform="translate(0,0)"/>
<path d="" fill="#D3BDC2" transform="translate(0,0)"/>
<path d="" fill="#CAB3B6" transform="translate(0,0)"/>
<path d="" fill="#E6CFD5" transform="translate(0,0)"/>
<path d="" fill="#E6CED4" transform="translate(0,0)"/>
<path d="" fill="#E4D1D6" transform="translate(0,0)"/>
<path d="" fill="#E5CFD7" transform="translate(0,0)"/>
<path d="" fill="#D1B8BB" transform="translate(0,0)"/>
<path d="" fill="#E4CBD1" transform="translate(0,0)"/>
<path d="" fill="#EAD6DC" transform="translate(0,0)"/>
<path d="" fill="#E3CAD0" transform="translate(0,0)"/>
<path d="" fill="#D5BBBF" transform="translate(0,0)"/>
<path d="" fill="#CFB7BB" transform="translate(0,0)"/>
<path d="" fill="#DEC4C7" transform="translate(0,0)"/>
<path d="" fill="#CFB4B6" transform="translate(0,0)"/>
<path d="" fill="#A48885" transform="translate(0,0)"/>
<path d="" fill="#B99E9E" transform="translate(0,0)"/>
<path d="" fill="#BA9FA0" transform="translate(0,0)"/>
<path d="" fill="#9E7F7C" transform="translate(0,0)"/>
<path d="" fill="#CDAFB0" transform="translate(0,0)"/>
<path d="" fill="#BDA09F" transform="translate(0,0)"/>
<path d="" fill="#B89D9D" transform="translate(0,0)"/>
<path d="" fill="#BDA09F" transform="translate(0,0)"/>
<path d="" fill="#836259" transform="translate(0,0)"/>
<path d="" fill="#896861" transform="translate(0,0)"/>
<path d="" fill="#B89A98" transform="translate(0,0)"/>
<path d="" fill="#B89895" transform="translate(0,0)"/>
<path d="" fill="#896961" transform="translate(0,0)"/>
<path d="" fill="#B79591" transform="translate(0,0)"/>
<path d="" fill="#826157" transform="translate(0,0)"/>
<path d="" fill="#AB8C87" transform="translate(0,0)"/>
<path d="" fill="#A1827E" transform="translate(0,0)"/>
<path d="" fill="#86655D" transform="translate(0,0)"/>
<path d="" fill="#826157" transform="translate(0,0)"/>
<path d="" fill="#9B7771" transform="translate(0,0)"/>
<path d="" fill="#826158" transform="translate(0,0)"/>
<path d="" fill="#AF8C86" transform="translate(0,0)"/>
<path d="" fill="#A5847E" transform="translate(0,0)"/>
<path d="" fill="#7F5F55" transform="translate(0,0)"/>
<path d="" fill="#7F5E56" transform="translate(0,0)"/>
<path d="" fill="#9A7973" transform="translate(0,0)"/>
<path d="" fill="#9D7B73" transform="translate(0,0)"/>
<path d="" fill="#97766F" transform="translate(0,0)"/>
<path d="" fill="#9C7972" transform="translate(0,0)"/>
<path d="" fill="#9F7C74" transform="translate(0,0)"/>
<path d="" fill="#7E5B50" transform="translate(0,0)"/>
<path d="" fill="#7C5B50" transform="translate(0,0)"/>
<path d="" fill="#96736A" transform="translate(0,0)"/>
<path d="" fill="#7D5A4F" transform="translate(0,0)"/>
<path d="" fill="#9A766E" transform="translate(0,0)"/>
<path d="" fill="#7D5A50" transform="translate(0,0)"/>
<path d="" fill="#7D5A50" transform="translate(0,0)"/>
<path d="" fill="#8C6960" transform="translate(0,0)"/>
<path d="" fill="#7A574D" transform="translate(0,0)"/>
<path d="" fill="#7C5A50" transform="translate(0,0)"/>
<path d="" fill="#765449" transform="translate(0,0)"/>
<path d="" fill="#8B685E" transform="translate(0,0)"/>
<path d="" fill="#926E64" transform="translate(0,0)"/>
<path d="" fill="#8B655B" transform="translate(0,0)"/>
<path d="" fill="#78564B" transform="translate(0,0)"/>
<path d="" fill="#79564B" transform="translate(0,0)"/>
<path d="" fill="#876359" transform="translate(0,0)"/>
<path d="" fill="#835F54" transform="translate(0,0)"/>
<path d="" fill="#866258" transform="translate(0,0)"/>
<path d="" fill="#815D53" transform="translate(0,0)"/>
<path d="" fill="#7C564B" transform="translate(0,0)"/>
<path d="" fill="#845F54" transform="translate(0,0)"/>
<path d="" fill="#7D574D" transform="translate(0,0)"/>
<path d="" fill="#7F5A4F" transform="translate(0,0)"/>
<path d="" fill="#886154" transform="translate(0,0)"/>
<path d="" fill="#B69792" transform="translate(0,0)"/>
<path d="" fill="#805A4F" transform="translate(0,0)"/>
<path d="" fill="#D0B5B2" transform="translate(0,0)"/>
<path d="" fill="#7F5A4E" transform="translate(0,0)"/>
<path d="" fill="#855E52" transform="translate(0,0)"/>
<path d="" fill="#8F665A" transform="translate(0,0)"/>
<path d="" fill="#C2A8A3" transform="translate(0,0)"/>
<path d="" fill="#AB8C85" transform="translate(0,0)"/>
<path d="" fill="#D4BCBB" transform="translate(0,0)"/>
<path d="" fill="#C3AAA8" transform="translate(0,0)"/>
<path d="" fill="#8C6559" transform="translate(0,0)"/>
<path d="" fill="#C0A5A4" transform="translate(0,0)"/>
<path d="" fill="#D0B8B9" transform="translate(0,0)"/>
<path d="" fill="#BB9F9C" transform="translate(0,0)"/>
<path d="" fill="#C4A9A8" transform="translate(0,0)"/>
<path d="" fill="#CCB4B4" transform="translate(0,0)"/>
<path d="" fill="#8F6C64" transform="translate(0,0)"/>
<path d="" fill="#927069" transform="translate(0,0)"/>
<path d="" fill="#997974" transform="translate(0,0)"/>
<path d="" fill="#B89A98" transform="translate(0,0)"/>
<path d="" fill="#B49491" transform="translate(0,0)"/>
<path d="" fill="#9C7D79" transform="translate(0,0)"/>
<path d="" fill="#9D7C76" transform="translate(0,0)"/>
<path d="" fill="#B7A2B0" transform="translate(0,0)"/>
<path d="" fill="#BCA8BB" transform="translate(0,0)"/>
<path d="" fill="#A78786" transform="translate(0,0)"/>
<path d="" fill="#A68A8A" transform="translate(0,0)"/>
<path d="" fill="#B7999A" transform="translate(0,0)"/>
<path d="" fill="#AD9295" transform="translate(0,0)"/>
<path d="" fill="#C0A4AA" transform="translate(0,0)"/>
<path d="" fill="#C4ADC0" transform="translate(0,0)"/>
<path d="" fill="#BEA9B7" transform="translate(0,0)"/>
<path d="" fill="#C1B0C5" transform="translate(0,0)"/>
<path d="" fill="#CAB4C7" transform="translate(0,0)"/>
<path d="" fill="#BFAABA" transform="translate(0,0)"/>
<path d="" fill="#CAB4C5" transform="translate(0,0)"/>
<path d="" fill="#CAB4C5" transform="translate(0,0)"/>
<path d="" fill="#C1ADBD" transform="translate(0,0)"/>
<path d="" fill="#D0BACB" transform="translate(0,0)"/>
<path d="" fill="#CFBACD" transform="translate(0,0)"/>
<path d="" fill="#CAB6C9" transform="translate(0,0)"/>
<path d="" fill="#D1BCD1" transform="translate(0,0)"/>
<path d="" fill="#CBB6C8" transform="translate(0,0)"/>
<path d="" fill="#C4B2CB" transform="translate(0,0)"/>
<path d="" fill="#CAB7CB" transform="translate(0,0)"/>
<path d="" fill="#CAB7CB" transform="translate(0,0)"/>
<path d="" fill="#D4BFD4" transform="translate(0,0)"/>
<path d="" fill="#D3BED2" transform="translate(0,0)"/>
<path d="" fill="#CDB9D0" transform="translate(0,0)"/>
<path d="" fill="#C9B6CB" transform="translate(0,0)"/>
<path d="" fill="#C6B4CC" transform="translate(0,0)"/>
<path d="" fill="#C8B5CD" transform="translate(0,0)"/>
<path d="" fill="#CCB9CF" transform="translate(0,0)"/>
<path d="" fill="#D8C3D8" transform="translate(0,0)"/>
<path d="" fill="#CCB9CF" transform="translate(0,0)"/>
<path d="" fill="#C7B4CD" transform="translate(0,0)"/>
<path d="" fill="#C5B3C7" transform="translate(0,0)"/>
<path d="" fill="#C4B2C7" transform="translate(0,0)"/>
<path d="" fill="#C8B5CE" transform="translate(0,0)"/>
<path d="" fill="#C6B4CE" transform="translate(0,0)"/>
<path d="" fill="#C4B1C7" transform="translate(0,0)"/>
<path d="" fill="#CCB9CF" transform="translate(0,0)"/>
<path d="" fill="#CCB9CF" transform="translate(0,0)"/>
<path d="" fill="#C3B1C6" transform="translate(0,0)"/>
<path d="" fill="#C3B0C6" transform="translate(0,0)"/>
<path d="" fill="#C6B4CD" transform="translate(0,0)"/>
<path d="" fill="#C3B1C6" transform="translate(0,0)"/>
<path d="" fill="#CBB8CF" transform="translate(0,0)"/>
<path d="" fill="#CBB8CF" transform="translate(0,0)"/>
<path d="" fill="#C5B4CD" transform="translate(0,0)"/>
<path d="" fill="#C4B4CD" transform="translate(0,0)"/>
<path d="" fill="#C2B0C6" transform="translate(0,0)"/>
<path d="" fill="#C1AFC6" transform="translate(0,0)"/>
<path d="" fill="#D4C0D9" transform="translate(0,0)"/>
<path d="" fill="#C1AFC6" transform="translate(0,0)"/>
<path d="" fill="#C1AFC6" transform="translate(0,0)"/>
<path d="" fill="#C9B4CE" transform="translate(0,0)"/>
<path d="" fill="#C3B2CB" transform="translate(0,0)"/>
<path d="" fill="#C0AEC6" transform="translate(0,0)"/>
<path d="" fill="#C9B6CE" transform="translate(0,0)"/>
<path d="" fill="#C9B6CE" transform="translate(0,0)"/>
<path d="" fill="#C3B1CC" transform="translate(0,0)"/>
<path d="" fill="#C8B5CE" transform="translate(0,0)"/>
<path d="" fill="#C5B5CE" transform="translate(0,0)"/>
<path d="" fill="#C4B3CD" transform="translate(0,0)"/>
<path d="" fill="#BFADC5" transform="translate(0,0)"/>
<path d="" fill="#D0BDD6" transform="translate(0,0)"/>
<path d="" fill="#C8B5CE" transform="translate(0,0)"/>
<path d="" fill="#C8B5CE" transform="translate(0,0)"/>
<path d="" fill="#C7B4CE" transform="translate(0,0)"/>
<path d="" fill="#C7B4CE" transform="translate(0,0)"/>
<path d="" fill="#CAB7D2" transform="translate(0,0)"/>
<path d="" fill="#BEACC5" transform="translate(0,0)"/>
<path d="" fill="#C7B4CE" transform="translate(0,0)"/>
<path d="" fill="#BEACC5" transform="translate(0,0)"/>
<path d="" fill="#C4B3CD" transform="translate(0,0)"/>
<path d="" fill="#BDACC5" transform="translate(0,0)"/>
<path d="" fill="#C3B2CC" transform="translate(0,0)"/>
<path d="" fill="#C5B3CD" transform="translate(0,0)"/>
<path d="" fill="#C8B5D0" transform="translate(0,0)"/>
<path d="" fill="#C5B3CD" transform="translate(0,0)"/>
<path d="" fill="#D0BBD7" transform="translate(0,0)"/>
<path d="" fill="#C5B3CD" transform="translate(0,0)"/>
<path d="" fill="#BDABC4" transform="translate(0,0)"/>
<path d="" fill="#CDBAD6" transform="translate(0,0)"/>
<path d="" fill="#BCAAC4" transform="translate(0,0)"/>
<path d="" fill="#BBAAC4" transform="translate(0,0)"/>
<path d="" fill="#BBAAC4" transform="translate(0,0)"/>
<path d="" fill="#BBA9C4" transform="translate(0,0)"/>
<path d="" fill="#C2B0CC" transform="translate(0,0)"/>
<path d="" fill="#C2B0CC" transform="translate(0,0)"/>
<path d="" fill="#CDB9D7" transform="translate(0,0)"/>
<path d="" fill="#CBB8D5" transform="translate(0,0)"/>
<path d="" fill="#CFBBD8" transform="translate(0,0)"/>
<path d="" fill="#C4B2CD" transform="translate(0,0)"/>
<path d="" fill="#BBA9C4" transform="translate(0,0)"/>
</svg>
