<?xml version="1.0" standalone="no"?>
<!DOCTYPE svg PUBLIC "-//W3C//DTD SVG 20010904//EN"
 "http://www.w3.org/TR/2001/REC-SVG-20010904/DTD/svg10.dtd">
<svg version="1.0" xmlns="http://www.w3.org/2000/svg"
 width="600.000000pt" height="349.000000pt" viewBox="0 0 600.000000 349.000000"
 preserveAspectRatio="xMidYMid meet">

<g transform="translate(0.000000,349.000000) scale(0.100000,-0.100000)"
fill="#000000" stroke="none">
<path d="M2500 2137 c-30 -7 -64 -18 -76 -24 -33 -19 -92 -89 -109 -130 -25
-60 -37 -170 -25 -233 19 -103 54 -155 201 -301 75 -75 145 -151 155 -170 11
-21 19 -64 22 -115 5 -96 -7 -117 -67 -112 -50 4 -61 31 -61 156 l0 103 -127
-3 -128 -3 2 -118 c4 -280 93 -380 338 -381 80 0 98 3 149 28 43 21 65 40 87
74 52 82 64 134 64 277 0 126 -1 132 -33 199 -27 58 -58 95 -191 231 -131 132
-161 168 -166 198 -14 73 53 120 102 71 18 -18 23 -34 23 -74 l0 -50 131 0
132 0 -6 73 c-12 151 -65 242 -165 285 -62 27 -180 35 -252 19z"/>
<path d="M3880 2141 c-142 -26 -217 -108 -241 -260 -7 -46 -9 -205 -7 -444 3
-353 5 -375 25 -431 44 -116 115 -176 234 -196 105 -18 215 6 281 60 21 18 51
59 70 98 l33 67 0 450 0 450 -28 57 c-48 98 -126 144 -257 153 -36 2 -85 0
-110 -4z m103 -242 c12 -7 25 -17 29 -23 4 -6 8 -184 8 -396 0 -432 0 -430
-66 -430 -62 0 -64 17 -63 427 1 197 4 369 8 383 4 14 18 30 31 37 30 15 27
15 53 2z"/>
<path d="M3030 1475 l0 -665 265 0 265 0 0 114 0 114 -37 -1 c-21 0 -82 0
-135 1 l-98 2 -2 548 -3 547 -127 3 -128 3 0 -666z"/>
<path d="M4357 2133 c-4 -3 -7 -60 -7 -125 l0 -118 80 0 80 0 2 -537 3 -538
127 -3 128 -3 2 538 3 538 78 3 77 3 0 124 0 125 -283 0 c-156 0 -287 -3 -290
-7z"/>
<path d="M5016 2131 c-3 -4 -5 -303 -3 -662 l2 -654 127 -3 128 -3 2 303 3
303 65 0 65 0 3 -302 2 -303 125 0 125 0 0 665 0 665 -125 0 -125 0 -2 -237
-3 -238 -67 -3 -68 -3 0 241 0 240 -124 0 c-69 0 -127 -4 -130 -9z"/>
<path d="M477 1920 c-131 -33 -253 -155 -311 -310 -155 -415 132 -881 624
-1014 52 -14 99 -26 104 -26 6 0 -23 22 -63 49 -259 172 -419 382 -440 575
-21 185 22 272 170 347 77 39 125 82 155 140 45 90 25 187 -48 225 -38 20
-138 27 -191 14z m72 -130 c18 -5 45 -17 60 -27 l26 -18 -77 -5 c-62 -5 -91
-13 -148 -42 -38 -20 -70 -34 -70 -31 0 5 70 103 73 103 1 0 20 7 42 15 49 17
52 17 94 5z"/>
<path d="M1465 1916 c-22 -8 -52 -30 -67 -48 -23 -26 -28 -42 -28 -85 0 -102
54 -177 172 -240 80 -42 134 -92 159 -147 24 -53 26 -199 3 -277 -50 -171
-205 -355 -422 -499 -86 -57 -79 -58 70 -14 300 89 537 319 610 593 91 344
-103 707 -389 727 -46 3 -81 0 -108 -10z m177 -126 c35 -10 93 -64 117 -109
10 -18 1 -16 -59 16 -57 30 -85 38 -147 43 -71 5 -74 6 -57 21 20 17 69 37 94
38 8 1 31 -4 52 -9z"/>
<path d="M997 1579 c-60 -7 -97 -29 -97 -59 0 -23 26 -45 82 -69 54 -23 72
-50 64 -96 -16 -84 -112 -88 -235 -11 -50 32 -51 32 -51 3 0 -31 32 -60 105
-94 78 -36 230 -45 321 -18 75 21 136 56 153 88 24 45 4 46 -76 5 -129 -65
-203 -51 -203 39 0 51 15 70 70 88 77 26 100 78 46 107 -30 17 -111 24 -179
17z m8 -79 c0 -8 -10 -16 -22 -18 -22 -3 -32 16 -16 32 12 11 38 2 38 -14z
m135 0 c0 -13 -7 -20 -18 -20 -24 0 -32 8 -25 26 8 22 43 17 43 -6z"/>
</g>
</svg>
